<svg xmlns="http://www.w3.org/2000/svg" xmlns:xlink="http://www.w3.org/1999/xlink" width="191.592" height="74" viewBox="0 0 191.592 74"><defs><style>.a,.b{fill:#33b0e4;}.a{font-size:38px;font-family:Oswald-Regular_Medium, Oswald;letter-spacing:0.1em;}.c{fill:#8bcbe5;}.d{fill:#bfe8f8;}.e{font-size:12px;font-family:SegoeUI-Italic, Segoe UI;font-style:italic;letter-spacing:0.05em;}.f{filter:url(#a);}</style><filter id="a" x="34.914" y="0" width="147" height="74" filterUnits="userSpaceOnUse"><feOffset dy="3" input="SourceAlpha"/><feGaussianBlur stdDeviation="3" result="b"/><feFlood flood-opacity="0.161"/><feComposite operator="in" in2="b"/><feComposite in="SourceGraphic"/></filter></defs><g transform="translate(0 6)"><g class="f" transform="matrix(1, 0, 0, 1, 0, -6)"><text class="a" transform="translate(43.91 51)"><tspan x="0" y="0">raacom</tspan></text></g><g transform="translate(0 15.959)"><path class="b" d="M150.5,152.77H138.026a2.268,2.268,0,0,1-2.268-2.268V138.027a2.268,2.268,0,0,1,2.268-2.268H150.5a2.268,2.268,0,0,1,2.268,2.268V150.5A2.268,2.268,0,0,1,150.5,152.77Z" transform="translate(-126.155 -126.156)"/><path class="c" d="M172.849,173.417H160.374a.567.567,0,0,1-.567-.567V160.375a.567.567,0,0,1,.567-.567h12.475a.567.567,0,0,1,.567.567V172.85A.567.567,0,0,1,172.849,173.417Z" transform="translate(-148.503 -148.504)"/><g transform="translate(1.665 12.438)"><circle class="b" cx="1.134" cy="1.134" r="1.134"/><circle class="b" cx="1.134" cy="1.134" r="1.134" transform="translate(30.62 9.073)"/></g><g transform="translate(0.531 7.335)"><circle class="b" cx="1.134" cy="1.134" r="1.134" transform="translate(0 19.279)"/><circle class="b" cx="1.134" cy="1.134" r="1.134" transform="translate(32.889)"/></g><g transform="translate(12.438 1.665)"><circle class="b" cx="1.134" cy="1.134" r="1.134" transform="translate(9.073)"/><circle class="b" cx="1.134" cy="1.134" r="1.134" transform="translate(0 30.62)"/></g><g transform="translate(7.335 0.531)"><circle class="b" cx="1.134" cy="1.134" r="1.134"/><circle class="b" cx="1.134" cy="1.134" r="1.134" transform="translate(19.279 32.889)"/></g><path class="d" d="M188.959,186.338a.567.567,0,0,1,.423.189,1.993,1.993,0,0,0,1.491.653,1.836,1.836,0,0,0,1.9-1.581.568.568,0,0,1,.28-.444,1.963,1.963,0,0,0,1.013-1.66,1.852,1.852,0,0,0-.559-1.3.567.567,0,0,1,0-.8,1.852,1.852,0,0,0,.559-1.3,2.017,2.017,0,0,0-1.556-1.878.567.567,0,0,1-.4-.672,1.265,1.265,0,0,0,.038-.284,1.516,1.516,0,0,0-1.595-1.418,1.687,1.687,0,0,0-1.193.479.584.584,0,0,1-.8,0,1.687,1.687,0,0,0-1.193-.479,1.516,1.516,0,0,0-1.595,1.418,1.316,1.316,0,0,0,.031.279.567.567,0,0,1-.4.667,2.02,2.02,0,0,0-1.547,1.889,1.8,1.8,0,0,0,.429,1.152.567.567,0,0,1,.014.7,2.091,2.091,0,0,0-.443,1.264,2.207,2.207,0,0,0,1.026,1.814.568.568,0,0,1,.253.467,1.822,1.822,0,0,0,1.912,1.688,1.993,1.993,0,0,0,1.491-.653A.567.567,0,0,1,188.959,186.338Z" transform="translate(-170.85 -163.402)"/><path d="M125.087,17.579h-8.542V16.372h2.3a.531.531,0,1,0,0-1.061h-2.3V14.1h1.6a2.217,2.217,0,0,0,1.578-.654l3.489-3.489a1.663,1.663,0,1,0-.75-.75L118.973,12.7a1.163,1.163,0,0,1-.828.343h-1.6V11.872a2.8,2.8,0,0,0-2.8-2.8h-1.171v-4.7a1.665,1.665,0,1,0-1.061,0v4.7h-1.207v-2.3a.531.531,0,1,0-1.061,0v2.3H108.04V.532a.531.531,0,0,0-1.061,0V9.074h-1.207v-2.3a.531.531,0,0,0-1.061,0v2.3H103.5v-1.6A2.217,2.217,0,0,0,102.85,5.9l-3.49-3.49a1.665,1.665,0,1,0-.75.75l3.49,3.49a1.163,1.163,0,0,1,.343.828v1.6h-1.171a2.81,2.81,0,0,0-.7.088.531.531,0,0,0,.265,1.028,1.747,1.747,0,0,1,.435-.055h12.475a1.74,1.74,0,0,1,1.738,1.738V24.347a1.747,1.747,0,0,1-.055.435.531.531,0,1,0,1.028.264,2.807,2.807,0,0,0,.088-.7V23.177h4.7a1.665,1.665,0,1,0,0-1.061h-4.7V20.908h2.3a.531.531,0,1,0,0-1.061h-2.3V18.64h8.542a.531.531,0,0,0,0-1.061Zm-1.561-9.536a.6.6,0,1,1,0,.854h0a.6.6,0,0,1,0-.854ZM112.046,2.2a.6.6,0,1,1-.6.6A.6.6,0,0,1,112.046,2.2Zm-14.6-.1a.6.6,0,1,1,.854,0h0A.6.6,0,0,1,97.443,2.092Zm25.377,19.95a.6.6,0,1,1-.6.6A.6.6,0,0,1,122.819,22.043Z" transform="translate(-89.4 -0.001)"/><path d="M27.009,174.6l-3.49-3.49a1.163,1.163,0,0,1-.343-.828v-1.6h1.171a2.809,2.809,0,0,0,.7-.088.531.531,0,1,0-.264-1.028,1.748,1.748,0,0,1-.435.055H11.871a1.74,1.74,0,0,1-1.738-1.738V153.4a1.745,1.745,0,0,1,.055-.435.531.531,0,0,0-1.028-.265,2.8,2.8,0,0,0-.088.7v1.171h-4.7a1.665,1.665,0,1,0,0,1.061h4.7v1.207h-2.3a.531.531,0,0,0,0,1.061h2.3v1.207H.531a.531.531,0,1,0,0,1.061H9.073v1.207h-2.3a.531.531,0,0,0,0,1.061h2.3v1.207h-1.6a2.217,2.217,0,0,0-1.578.654L2.405,167.79a1.663,1.663,0,1,0,.75.75l3.489-3.489a1.163,1.163,0,0,1,.828-.343h1.6v1.171a2.8,2.8,0,0,0,2.8,2.8h1.171v4.7a1.665,1.665,0,1,0,1.061,0v-4.7H15.31v2.3a.531.531,0,1,0,1.061,0v-2.3h1.207v8.542a.531.531,0,1,0,1.061,0v-8.542h1.207v2.3a.531.531,0,1,0,1.061,0v-2.3h1.207v1.6a2.217,2.217,0,0,0,.654,1.578l3.49,3.49a1.665,1.665,0,1,0,.75-.75ZM2.8,155.709a.6.6,0,1,1,.6-.6A.6.6,0,0,1,2.8,155.709Zm-.707,14a.6.6,0,1,1,0-.854h0a.6.6,0,0,1,0,.854Zm11.481,5.847a.6.6,0,1,1,.6-.6A.6.6,0,0,1,13.572,175.555Zm14.6.957a.6.6,0,1,1,0-.854A.6.6,0,0,1,28.175,176.512Z" transform="translate(0 -141.533)"/><path d="M177.633,178.509h0a2.348,2.348,0,0,0,2.444,2.232,2.531,2.531,0,0,0,1.914-.846,2.531,2.531,0,0,0,1.914.846,2.364,2.364,0,0,0,2.439-2.094,2.48,2.48,0,0,0,1.281-2.122,2.391,2.391,0,0,0-.738-1.7,2.392,2.392,0,0,0,.738-1.7,2.562,2.562,0,0,0-1.966-2.408,1.812,1.812,0,0,0,.052-.427,2.045,2.045,0,0,0-2.125-1.948,2.207,2.207,0,0,0-1.595.662,2.207,2.207,0,0,0-1.595-.662,2.045,2.045,0,0,0-2.125,1.948,1.809,1.809,0,0,0,.052.427,2.562,2.562,0,0,0-1.966,2.408,2.33,2.33,0,0,0,.559,1.51,2.623,2.623,0,0,0-.559,1.609A2.732,2.732,0,0,0,177.633,178.509Zm1.474-6.839h.014a.53.53,0,0,0,.45-.81l-.012-.019-.007-.009c-.008-.012-.017-.023-.026-.034h0a.788.788,0,0,1-.194-.509,1.082,1.082,0,0,1,2.128,0,.531.531,0,0,0,1.061,0,1.082,1.082,0,0,1,2.128,0,.747.747,0,0,1-.08.334,2.944,2.944,0,0,0-.871.218.531.531,0,0,0,.412.978,1.915,1.915,0,0,1,.733-.148h.029a1.592,1.592,0,0,1,1.689,1.454,1.415,1.415,0,0,1-.816,1.232.53.53,0,0,0,0,.938,1.416,1.416,0,0,1,.816,1.232,1.357,1.357,0,0,1-.467,1A2.382,2.382,0,0,0,184.7,176.4a.531.531,0,0,0-.318,1.012,1.2,1.2,0,0,1,.9,1.1,1.4,1.4,0,0,1-2.767,0v-3.4a1.292,1.292,0,0,1,1.383-1.171.531.531,0,0,0,0-1.061,2.594,2.594,0,0,0-1.383.393v-.678a.531.531,0,0,0-1.061,0v2.945a2.527,2.527,0,0,0-.586-.271.53.53,0,0,0-.318,1.012,1.2,1.2,0,0,1,.9,1.1v1.134a1.4,1.4,0,0,1-2.766,0,1.07,1.07,0,0,1,.33-.757.531.531,0,0,0-.748-.753,2.263,2.263,0,0,0-.328.411,1.618,1.618,0,0,1-.531-1.17,1.807,1.807,0,0,1,1.5-1.679.531.531,0,0,0-.237-1.034,3.231,3.231,0,0,0-.973.4,1.28,1.28,0,0,1-.29-.8A1.593,1.593,0,0,1,179.107,171.669Z" transform="translate(-163.882 -156.432)"/></g><text class="e" transform="translate(107.592 57.46)"><tspan x="0" y="0">redefine work..</tspan></text></g></svg>